<?xml version="1.0" standalone="no"?>
<!DOCTYPE svg PUBLIC "-//W3C//DTD SVG 20010904//EN"
 "http://www.w3.org/TR/2001/REC-SVG-20010904/DTD/svg10.dtd">
<svg version="1.0" xmlns="http://www.w3.org/2000/svg"
 width="128.000000pt" height="128.000000pt" viewBox="0 0 128.000000 128.000000"
 preserveAspectRatio="xMidYMid meet">
<metadata>
Created by potrace 1.14, written by Peter Selinger 2001-2017
</metadata>
<g transform="translate(0.000000,128.000000) scale(0.100000,-0.100000)"
fill="#000000" stroke="none">
<path d="M120 1160 c-11 -11 -20 -29 -20 -40 0 -26 34 -60 60 -60 20 0 20 -7
20 -420 0 -413 0 -420 -20 -420 -26 0 -60 -34 -60 -60 0 -11 9 -29 20 -40 19
-19 33 -20 520 -20 487 0 501 1 520 20 11 11 20 29 20 40 0 26 -34 60 -60 60
-20 0 -20 7 -20 420 0 413 0 420 20 420 26 0 60 34 60 60 0 11 -9 29 -20 40
-19 19 -33 20 -520 20 -487 0 -501 -1 -520 -20z m1015 -40 c0 -13 -62 -15
-489 -18 -290 -1 -494 2 -499 7 -29 29 12 31 496 29 430 -3 492 -5 492 -18z
m-75 -480 l0 -420 -420 0 -420 0 0 420 0 420 420 0 420 0 0 -420z m75 -480 c0
-13 -62 -15 -489 -18 -290 -1 -494 2 -499 7 -29 29 12 31 496 29 430 -3 492
-5 492 -18z"/>
<path d="M265 1008 c-3 -7 -4 -177 -3 -378 l3 -365 375 0 375 0 0 375 0 375
-373 3 c-293 2 -374 0 -377 -10z m355 -368 l0 -340 -160 0 -160 0 0 340 0 340
160 0 160 0 0 -340z m360 0 l0 -340 -160 0 -160 0 0 340 0 340 160 0 160 0 0
-340z"/>
<path d="M437 732 c-59 -59 -107 -113 -107 -119 0 -34 30 -14 132 86 100 99
111 112 98 126 -14 13 -27 3 -123 -93z"/>
<path d="M446 581 c-99 -99 -119 -131 -83 -131 7 0 58 47 115 104 74 74 101
108 96 119 -3 10 -9 17 -13 17 -3 0 -55 -49 -115 -109z"/>
<path d="M816 731 c-78 -78 -107 -114 -103 -126 10 -24 28 -10 142 104 88 89
97 103 84 116 -13 13 -27 2 -123 -94z"/>
<path d="M827 582 c-59 -59 -107 -113 -107 -120 0 -32 44 -3 138 91 75 75 101
108 96 120 -3 9 -9 17 -13 17 -3 0 -55 -48 -114 -108z"/>
</g>
</svg>
